<svg xmlns="http://www.w3.org/2000/svg" viewBox="0 0 512 512">
  <defs>
    <linearGradient id="bg" x1="0" y1="0" x2="0" y2="1">
      <stop offset="0%" stop-color="#2b3a91"/>
      <stop offset="100%" stop-color="#1a2158"/>
    </linearGradient>
    <linearGradient id="flame" x1="0" y1="0" x2="0" y2="1">
      <stop offset="0%" stop-color="#ffe066"/>
      <stop offset="55%" stop-color="#fab005"/>
      <stop offset="100%" stop-color="#e8590c"/>
    </linearGradient>
  </defs>
  <rect x="0" y="0" width="512" height="512" rx="104" fill="url(#bg)"/>
  <!-- lamp base -->
  <rect x="196" y="392" width="120" height="18" rx="9" fill="#c9ccd6"/>
  <rect x="222" y="366" width="68" height="30" rx="8" fill="#e7e9f0"/>
  <!-- flame -->
  <path d="M256 96
           C 200 168, 176 216, 176 268
           C 176 328, 214 368, 256 368
           C 298 368, 336 328, 336 268
           C 336 216, 312 168, 256 96 Z"
        fill="url(#flame)"/>
  <path d="M256 176
           C 226 220, 214 250, 214 280
           C 214 314, 232 336, 256 336
           C 280 336, 298 314, 298 280
           C 298 250, 286 220, 256 176 Z"
        fill="#fff3bf" opacity="0.85"/>
</svg>
